<?xml version="1.0" encoding="utf-8"?>
<!-- Generator: Adobe Illustrator 23.0.1, SVG Export Plug-In . SVG Version: 6.00 Build 0)  -->
<svg version="1.1" id="Layer_1" xmlns="http://www.w3.org/2000/svg" xmlns:xlink="http://www.w3.org/1999/xlink" x="0px" y="0px"
	 viewBox="0 0 342.1 327" style="enable-background:new 0 0 342.1 327;" xml:space="preserve">
<style type="text/css">
	.st0{fill:none;stroke:#F1B631;stroke-width:9.3758;}
	.st1{fill:none;stroke:#F1B631;stroke-width:9.2789;stroke-linecap:round;}
	.st2{fill:none;stroke:#FFFFFF;stroke-width:9.2789;stroke-linecap:round;stroke-linejoin:round;}
</style>
<title>logo lockup</title>
<desc>Created with Sketch.</desc>
<path id="Stroke-5" class="st0" d="M312.9,135.3c13.6,0,24.5-11,24.5-24.5s-11-24.5-24.5-24.5c-13.6,0-24.5,11-24.5,24.5
	C288.3,124.3,299.3,135.3,312.9,135.3z"/>
<path class="st1" d="M318.2,199.9c-16.4,70.2-79.5,122.5-154.7,122.5C75,322.4,3.4,250,4.7,161.3C5.9,74,77.9,3.8,165.2,4.6
	C224.5,5.2,276,38.3,302.8,86.9"/>
<path id="Stroke-9" class="st2" d="M180.4,294.1c0.6-19.8-11-30.7-9.9-30.7c35.2-0.5,86.6-20.5,92.7-60.1c0.9-5.7,0.8-11.7-1-17.2
	c1-7-3.9-9.6-5.6-10.4c-2.4-1.1-5.3-1.2-7.8-0.1c-8.5-23.8-4.5-41.3-10.6-59.9c-13.5-41.5-66.8-56.6-105.4-44.1
	c-1.4,0.4-2.9-0.1-3.7-1.3c-2.8-4.3-7.2-9.2-8-9C107.2,65.5,96.5,77.9,93,95.4c-19.7,17.7-32.1,43.3-32.1,71.9
	c0,50.5,39.2,92.1,88.6,96.2c2.7,0.2-14.8,3.7-24.6,26.6"/>
</svg>
